<?xml version="1.0" encoding="UTF-8"?>
<svg id="Layer_1" xmlns="http://www.w3.org/2000/svg" version="1.1" viewBox="0 0 448 448">
  <!-- Generator: Adobe Illustrator 29.1.0, SVG Export Plug-In . SVG Version: 2.1.0 Build 142)  -->
  <defs>
    <style>
      .st0 {
        fill: #fff;
      }
    </style>
  </defs>
  <path class="st0" d="M384,0h-61.3v48h61.3c8.8,0,16,7.2,16,16v61.3h48v-61.3C448,28.7,419.3,0,384,0ZM0,64v61.3h48v-61.3c0-8.8,7.2-16,16-16h61.3V0h-61.3C28.7,0,0,28.7,0,64ZM400,322.7v61.3c0,8.8-7.2,16-16,16h-61.3v48h61.3c35.3,0,64-28.7,64-64v-61.3h-48ZM64,400c-8.8,0-16-7.2-16-16v-61.3H0v61.3c0,35.3,28.7,64,64,64h61.3v-48h-61.3Z"/>
</svg>